# xmcd
#
# Track frame offsets: 
#        150
#        20425
#        46252
#        62690
#        77897
#        97750
#        113087
#        132637
#        149350
#        167932
#        185202
#
# Disc length: 2753 seconds
#
# Revision: 0
# Processed by: cddbd v1.5.2PL0 Copyright (c) Steve Scherf et al.
# Submitted via: ExactAudioCopy v1.0b3
#
DISCID=990abf0b
DTITLE=Broken Foundation - Broken Foundation
DYEAR=2006
DGENRE=Hardcore
TTITLE0=Commoners
TTITLE1=Fallout
TTITLE2=Slaughter The Species
TTITLE3=Join The Grave
TTITLE4=Fallen Empire
TTITLE5=Art Of War
TTITLE6=Bleeding Bond
TTITLE7=Crossed Paths
TTITLE8=Cauldron
TTITLE9=Perseverance
TTITLE10=Born Against
EXTD=
EXTT0=
EXTT1=
EXTT2=
EXTT3=
EXTT4=
EXTT5=
EXTT6=
EXTT7=
EXTT8=
EXTT9=
EXTT10=
PLAYORDER=
